<svg xmlns="http://www.w3.org/2000/svg" version="1.0" width="512.000000pt" height="512.000000pt" viewBox="0 0 512.000000 512.000000" preserveAspectRatio="xMidYMid meet">

<g transform="translate(0.000000,512.000000) scale(0.100000,-0.100000)" fill="#d9d91c" stroke="none">
<path d="M2470 5113 c-87 -15 -111 -38 -125 -120 -4 -24 -11 -43 -16 -43 -4 0 -30 14 -56 30 -26 17 -56 30 -68 30 -49 0 -190 -120 -255 -218 -36 -54 -35 -81 5 -140 14 -20 25 -41 25 -47 0 -5 -28 -17 -62 -25 -58 -14 -65 -18 -83 -55 -17 -34 -20 -60 -20 -170 0 -110 3 -136 20 -170 18 -36 26 -42 80 -56 33 -9 60 -20 60 -25 0 -5 -13 -35 -30 -66 -28 -55 -29 -58 -13 -90 43 -91 213 -248 269 -248 14 0 46 14 72 30 26 17 51 30 56 30 5 0 14 -26 20 -59 6 -32 20 -66 29 -75 37 -33 210 -47 323 -26 66 12 95 41 105 105 3 25 10 48 16 51 5 3 30 -8 57 -25 26 -17 59 -31 73 -31 69 0 278 210 278 280 0 14 -14 48 -30 74 -17 26 -28 51 -25 56 3 5 27 12 52 16 72 11 99 44 108 129 4 38 5 111 2 164 -7 118 -21 140 -100 161 -30 8 -58 18 -62 21 -3 4 8 28 24 55 17 26 31 60 31 75 0 68 -210 279 -277 279 -15 0 -48 -14 -74 -31 -27 -17 -52 -28 -57 -25 -6 3 -13 26 -16 51 -10 67 -39 94 -111 105 -59 10 -176 11 -225 3z m190 -195 c6 -24 14 -51 17 -62 6 -21 120 -76 158 -76 15 0 47 12 72 26 l45 27 51 -52 52 -51 -28 -49 c-34 -61 -34 -74 2 -154 30 -67 37 -72 124 -91 26 -6 27 -8 27 -81 l0 -74 -42 -11 c-71 -18 -85 -29 -112 -94 -33 -76 -32 -87 1 -147 l28 -48 -50 -51 c-27 -27 -53 -50 -58 -50 -4 0 -25 11 -45 25 -46 32 -75 31 -148 -1 -66 -29 -74 -39 -90 -104 l-10 -45 -75 -3 -75 -3 -19 63 c-18 58 -24 65 -65 85 -79 38 -107 40 -168 7 l-53 -29 -50 53 -51 52 27 46 c32 55 31 92 -6 169 -21 44 -30 52 -69 64 -76 23 -75 21 -75 97 l0 68 60 21 c56 19 62 23 87 75 34 70 35 115 3 162 -14 20 -25 39 -25 42 0 10 73 87 91 97 14 7 29 3 60 -17 50 -31 88 -29 164 7 47 23 51 28 70 87 l19 62 73 0 72 0 11 -42z" fill="#d9d91c"/>
<path d="M2495 4711 c-137 -37 -237 -136 -271 -271 -42 -165 38 -336 194 -412 60 -30 75 -33 157 -33 78 0 98 4 150 28 78 36 146 104 182 181 24 53 28 73 28 151 0 82 -3 97 -32 156 -61 123 -172 197 -306 204 -39 2 -85 1 -102 -4z m172 -176 c138 -69 153 -259 27 -348 -83 -58 -198 -44 -268 33 -71 79 -73 187 -3 267 65 74 156 92 244 48z" fill="#d9d91c"/>
<path d="M720 3696 c-217 -46 -382 -172 -480 -367 -82 -162 -88 -388 -15 -543 15 -31 53 -90 85 -130 70 -88 90 -125 90 -165 0 -40 16 -81 44 -111 18 -19 25 -40 29 -92 6 -85 29 -126 89 -158 37 -19 48 -32 58 -63 15 -49 70 -110 124 -136 52 -26 150 -28 204 -5 63 26 142 119 142 167 0 7 18 21 40 31 65 28 94 76 98 160 2 42 9 75 17 81 25 21 55 81 55 113 0 48 20 88 84 167 109 135 152 265 143 430 -19 345 -296 615 -647 630 -59 3 -120 -1 -160 -9z m226 -157 c272 -50 462 -314 416 -580 -15 -87 -38 -134 -115 -229 -66 -82 -92 -133 -103 -198 l-7 -42 -286 0 -287 0 -12 58 c-13 64 -43 115 -121 213 -88 109 -117 235 -88 375 39 182 168 327 340 383 102 33 166 38 263 20z m124 -1239 l0 -30 -220 0 -220 0 0 30 0 30 220 0 220 0 0 -30z m-150 -200 c0 -28 -91 -40 -122 -16 -29 22 -21 26 52 26 39 0 70 -4 70 -10z" fill="#d9d91c"/>
<path d="M3704 3536 c-17 -8 -34 -21 -38 -31 -3 -9 -6 -326 -6 -704 l0 -688 23 -21 23 -22 591 0 c325 0 599 3 608 6 44 17 45 29 45 655 l0 592 -110 111 -109 111 -498 2 c-403 2 -504 0 -529 -11z m1023 -209 l63 -64 0 -516 0 -517 -485 0 -485 0 0 580 0 580 422 0 421 0 64 -63z" fill="#d9d91c"/>
<path d="M4547 3123 c-15 -10 -102 -101 -193 -203 -91 -102 -169 -185 -174 -185 -5 0 -30 27 -55 60 -25 33 -54 66 -62 73 -27 20 -72 14 -98 -13 -43 -42 -34 -70 63 -196 95 -123 123 -146 165 -135 31 7 444 458 464 506 30 69 -46 133 -110 93z" fill="#d9d91c"/>
<path d="M2433 3459 c-232 -22 -421 -124 -508 -273 -71 -121 -101 -262 -111 -524 -10 -256 16 -425 91 -603 19 -46 35 -85 35 -86 0 -2 -92 -3 -204 -3 -118 0 -216 -4 -232 -10 -53 -21 -53 -21 -54 -353 l0 -308 -51 -67 c-67 -89 -143 -247 -170 -352 -14 -60 -22 -131 -26 -242 l-6 -158 -69 0 c-72 0 -121 -17 -132 -45 -3 -9 -6 -100 -6 -201 0 -183 0 -185 25 -209 l24 -25 1255 0 1255 0 26 22 c37 32 37 83 1 115 l-27 23 -1200 0 -1199 0 0 80 0 80 1425 0 1425 0 0 -80 0 -80 -134 0 c-120 0 -136 -2 -160 -21 -37 -29 -37 -89 0 -118 25 -20 40 -21 215 -21 184 0 188 0 216 24 l28 24 0 192 0 192 -28 24 c-25 21 -38 24 -108 24 l-79 0 0 134 c0 74 -6 167 -14 208 -29 149 -93 293 -182 409 l-44 57 0 297 c0 332 -4 354 -60 374 -21 7 -110 11 -236 11 -112 0 -204 2 -204 4 0 2 16 37 34 78 68 146 96 297 96 526 0 369 -52 563 -190 703 -104 106 -236 158 -446 179 -112 11 -154 11 -271 -1z m371 -175 c259 -52 355 -204 373 -586 l6 -136 -39 -12 c-21 -6 -94 -14 -160 -17 -155 -7 -242 11 -380 77 -113 54 -222 147 -289 244 -68 99 -119 98 -187 -6 -21 -31 -62 -83 -93 -115 l-54 -58 -1 71 c0 101 25 234 59 309 52 113 135 183 265 220 121 35 353 39 500 9z m-414 -734 c72 -56 190 -114 297 -147 78 -23 105 -26 243 -27 85 -1 175 3 199 8 l44 8 -7 -53 c-11 -81 -62 -225 -107 -301 l-40 -68 -442 0 -443 0 -33 55 c-63 103 -112 260 -124 395 l-5 55 52 38 c29 21 86 71 126 112 l74 75 56 -54 c30 -29 80 -72 110 -96z m1158 -1277 l2 -533 -340 0 -340 0 0 57 c0 44 -5 62 -22 80 -21 23 -23 23 -274 23 l-253 0 -20 -26 c-15 -20 -21 -41 -21 -80 l0 -54 -335 0 -335 0 0 535 0 535 968 -2 967 -3 3 -532z m-2076 -670 l21 -23 394 0 393 0 0 -50 0 -50 -461 0 -462 0 6 153 c6 156 19 226 60 322 l22 50 3 -190 c2 -178 4 -191 24 -212z m2299 222 c14 -58 19 -116 19 -212 l0 -133 -461 0 -460 0 3 48 3 47 400 5 c220 3 401 7 403 8 2 1 10 18 18 37 10 25 14 80 15 202 l0 168 20 -45 c11 -25 29 -81 40 -125z m-1061 -215 l0 -130 -135 0 -135 0 0 130 0 130 135 0 135 0 0 -130z" fill="#d9d91c"/>
</g>
</svg>